HIERARCHY
ROOT Hips
{
	OFFSET 0.000000 0.000000 0.000000
	CHANNELS 6 Xposition Yposition Zposition Zrotation Yrotation Xrotation 
	JOINT LowerBack
	{
		OFFSET 0.000000 0.000000 0.000000
		CHANNELS 3 Zrotation Yrotation Xrotation
		JOINT Spine
		{
			OFFSET 0.028270 2.035590 -0.193380
			CHANNELS 3 Zrotation Yrotation Xrotation
			JOINT Spine1
			{
				OFFSET 0.056720 2.048850 -0.042750
				CHANNELS 3 Zrotation Yrotation Xrotation
				JOINT Neck
				{
					OFFSET 0.000000 0.000000 0.000000
					CHANNELS 3 Zrotation Yrotation Xrotation
					JOINT Neck1
					{
						OFFSET -0.054170 1.746240 0.172020
						CHANNELS 3 Zrotation Yrotation Xrotation
						JOINT Head
						{
							OFFSET 0.104070 1.761360 -0.123970
							CHANNELS 3 Zrotation Yrotation Xrotation
							End Site
							{
								OFFSET 0.000000 0.000000 0.000000
							}
						}
					}
				}
				JOINT LeftShoulder
				{
					OFFSET 0.000000 0.000000 0.000000
					CHANNELS 3 Zrotation Yrotation Xrotation
					JOINT LeftArm
					{
						OFFSET 3.362410 1.200890 -0.311210
						CHANNELS 3 Zrotation Yrotation Xrotation
						JOINT LeftForeArm
						{
							OFFSET 4.983000 -0.000000 -0.000000
							CHANNELS 3 Zrotation Yrotation Xrotation
							JOINT LeftHand
							{
								OFFSET 3.483560 -0.000000 -0.000000
								CHANNELS 3 Zrotation Yrotation Xrotation
								JOINT LeftFingerBase
								{
									OFFSET 0.000000 0.000000 0.000000
									CHANNELS 3 Zrotation Yrotation Xrotation
									JOINT LeftHandIndex1
									{
										OFFSET 0.715260 -0.000000 -0.000000
										CHANNELS 3 Zrotation Yrotation Xrotation
										End Site
										{
											OFFSET 0.000000 0.000000 0.000000
										}
									}
								}
								JOINT LThumb
								{
									OFFSET 0.000000 0.000000 0.000000
									CHANNELS 3 Zrotation Yrotation Xrotation
									End Site
									{
										OFFSET 0.000000 0.000000 0.000000
									}
								}
							}
						}
					}
				}
				JOINT RightShoulder
				{
					OFFSET 0.000000 0.000000 0.000000
					CHANNELS 3 Zrotation Yrotation Xrotation
					JOINT RightArm
					{
						OFFSET -3.136600 1.374050 -0.404650
						CHANNELS 3 Zrotation Yrotation Xrotation
						JOINT RightForeArm
						{
							OFFSET -5.241900 -0.000000 -0.000000
							CHANNELS 3 Zrotation Yrotation Xrotation
							JOINT RightHand
							{
								OFFSET -3.444170 -0.000000 -0.000000
								CHANNELS 3 Zrotation Yrotation Xrotation
								JOINT RightFingerBase
								{
									OFFSET 0.000000 0.000000 0.000000
									CHANNELS 3 Zrotation Yrotation Xrotation
									JOINT RightHandIndex1
									{
										OFFSET -0.622530 -0.000000 -0.000000
										CHANNELS 3 Zrotation Yrotation Xrotation
										End Site
										{
											OFFSET 0.000000 0.000000 0.000000
										}
									}
								}
								JOINT RThumb
								{
									OFFSET 0.000000 0.000000 0.000000
									CHANNELS 3 Zrotation Yrotation Xrotation
									End Site
									{
										OFFSET 0.000000 0.000000 0.000000
									}
								}
							}
						}
					}
				}
			}
		}
	}
}
}
MOTION
Frames: 11
Frame Time: 0.008333
-10.574673 16.830895 -2.086568 10.639974 83.102374 20.599634 -8.159028 1.679770 -4.422677 -2.195737 2.117950 -3.979314 -4.681657 1.969227 -0.133062 5.962991 -3.218797 -7.770874 -1.903093 -0.149589 -0.018010 0.000000 0.000000 0.000000 -9.169138 19.197005 2.482184 -61.683534 24.061121 -11.643145 -4.628604 -1.753747 -0.002152 5.540790 3.786623 0.189522 -0.110187 -0.058943 -0.000000 0.000000 0.000000 0.000000 0.000000 0.000000 0.000000 4.063099 3.864626 -0.515031 43.132014 45.998129 15.679478 0.310143 68.357138 -0.015184 -1.204892 7.321253 -0.078539 -0.047621 -0.480982 -0.000000 0.000000 0.000000 0.000000 0.000000 0.000000 0.000000 
-10.426493 16.786535 -2.098926 13.275850 83.030245 23.003858 -8.403288 1.574714 -4.190636 -2.257803 2.036128 -3.956816 -4.766975 1.893556 -0.204727 6.143291 -3.084275 -7.708678 -1.996569 -0.157145 -0.008794 0.000000 0.000000 0.000000 -9.240272 18.621704 2.555369 -62.068692 22.917811 -10.333150 -4.589116 -2.135092 -0.001980 5.377522 3.772921 0.183037 -0.102449 -0.056508 -0.000000 0.000000 0.000000 0.000000 0.000000 0.000000 0.000000 4.557249 4.073318 -0.420870 44.927961 44.917412 16.343563 0.378337 67.890055 -0.013944 -1.211510 7.332763 -0.079456 -0.039653 -0.475083 -0.000000 0.000000 0.000000 0.000000 0.000000 0.000000 0.000000 
-10.283028 16.737709 -2.112366 15.653525 82.909400 25.134812 -8.608019 1.481764 -3.914505 -2.311985 1.963523 -3.928410 -4.852637 1.827171 -0.289585 6.300413 -2.943507 -7.643988 -2.093531 -0.164907 0.000319 0.000000 0.000000 0.000000 -9.325073 18.024500 2.632889 -62.444401 21.696781 -8.908262 -4.543344 -2.570096 -0.001839 5.218416 3.764505 0.176955 -0.094650 -0.053589 -0.000000 0.000000 0.000000 0.000000 0.000000 0.000000 0.000000 5.042589 4.290726 -0.333424 46.699327 43.801968 16.929517 0.444750 67.318305 -0.012954 -1.245671 7.367466 -0.082578 -0.031749 -0.469289 -0.000000 0.000000 0.000000 0.000000 0.000000 0.000000 0.000000 
-10.144115 16.684806 -2.127058 17.740280 82.740804 26.961506 -8.771611 1.400709 -3.599272 -2.357822 1.899688 -3.895469 -4.938465 1.769250 -0.389117 6.434010 -2.786426 -7.573449 -2.193680 -0.172889 0.010305 0.000000 0.000000 0.000000 -9.427565 17.404981 2.713784 -62.800676 20.405782 -7.389614 -4.491925 -3.054009 -0.001747 5.070440 3.767490 0.171774 -0.086923 -0.050071 -0.000000 0.000000 0.000000 0.000000 0.000000 0.000000 0.000000 5.516257 4.523895 -0.252746 48.447200 42.645756 17.431077 0.509432 66.632970 -0.012208 -1.306588 7.427425 -0.087806 -0.024018 -0.463539 -0.000000 0.000000 0.000000 0.000000 0.000000 0.000000 0.000000 
-10.009397 16.628465 -2.143004 19.552562 82.530039 28.503058 -8.898085 1.329005 -3.251142 -2.396206 1.842292 -3.857895 -5.024833 1.717290 -0.498042 6.550282 -2.617144 -7.499947 -2.297296 -0.181053 0.020320 0.000000 0.000000 0.000000 -9.543552 16.779236 2.795972 -63.126921 19.027474 -5.793801 -4.434911 -3.568450 -0.001702 4.945291 3.782602 0.167795 -0.079370 -0.045831 -0.000000 0.000000 0.000000 0.000000 0.000000 0.000000 0.000000 5.990028 4.764347 -0.177795 50.159363 41.464700 17.854607 0.572584 65.817283 -0.011751 -1.403474 7.517718 -0.096042 -0.016378 -0.457755 -0.000000 0.000000 0.000000 0.000000 0.000000 0.000000 0.000000 
-9.878416 16.569563 -2.160160 21.113536 82.284704 29.785412 -8.990095 1.264527 -2.876745 -2.427688 1.789370 -3.816524 -5.111940 1.669107 -0.614532 6.652636 -2.432447 -7.422323 -2.404039 -0.189378 0.030702 0.000000 0.000000 0.000000 -9.669946 16.151567 2.877930 -63.414702 17.558516 -4.151690 -4.373356 -4.100960 -0.001706 4.854039 3.806026 0.165318 -0.072123 -0.040782 -0.000000 0.000000 0.000000 0.000000 0.000000 0.000000 0.000000 6.466669 5.010812 -0.108197 51.838373 40.255755 18.196829 0.634797 64.857695 -0.011567 -1.535984 7.640588 -0.107284 -0.008885 -0.451797 -0.000000 0.000000 0.000000 0.000000 0.000000 0.000000 0.000000 
-9.750663 16.509161 -2.178245 22.480102 82.013560 30.868795 -9.054986 1.203992 -2.483141 -2.453914 1.738139 -3.770947 -5.200408 1.621869 -0.731574 6.749333 -2.241978 -7.344765 -2.513876 -0.197786 0.040244 0.000000 0.000000 0.000000 -9.797782 15.537974 2.957015 -63.656818 15.977614 -2.488344 -4.308073 -4.632579 -0.001755 4.811288 3.831533 0.164544 -0.065275 -0.034856 -0.000000 0.000000 0.000000 0.000000 0.000000 0.000000 0.000000 6.959414 5.248483 -0.042796 53.478681 39.033232 18.463267 0.696940 63.734772 -0.011666 -1.711902 7.799594 -0.122538 -0.001423 -0.445504 -0.000000 0.000000 0.000000 0.000000 0.000000 0.000000 0.000000 
-9.625587 16.448412 -2.197115 23.675375 81.725962 31.779448 -9.094155 1.145920 -2.077077 -2.475257 1.687205 -3.721539 -5.290789 1.574080 -0.845513 6.844460 -2.050117 -7.268390 -2.626219 -0.206209 0.048705 0.000000 0.000000 0.000000 -9.922424 14.943740 3.030826 -63.848408 14.278286 -0.837274 -4.240562 -5.154162 -0.001857 4.830235 3.851314 0.165572 -0.058931 -0.028055 -0.000000 0.000000 0.000000 0.000000 0.000000 0.000000 0.000000 7.471822 5.468461 0.018969 55.084354 37.797311 18.649429 0.759906 62.431968 -0.012026 -1.932908 7.995054 -0.142100 0.006029 -0.438663 -0.000000 0.000000 0.000000 0.000000 0.000000 0.000000 0.000000 
-9.502659 16.388523 -2.216636 24.716458 81.431640 32.537716 -9.105910 1.089745 -1.665223 -2.491296 1.635898 -3.669584 -5.383122 1.524916 -0.956432 6.937659 -1.852680 -7.190840 -2.739579 -0.214562 0.056903 0.000000 0.000000 0.000000 -10.040871 14.365948 3.098048 -63.987525 12.466047 0.764198 -4.172684 -5.663251 -0.002022 4.923674 3.855610 0.168401 -0.053197 -0.020447 -0.000000 0.000000 0.000000 0.000000 0.000000 0.000000 0.000000 7.995160 5.670913 0.076168 56.669237 36.529367 18.731759 0.824103 60.938384 -0.012588 -2.194632 8.223579 -0.166273 0.013340 -0.431063 -0.000000 0.000000 0.000000 0.000000 0.000000 0.000000 0.000000 
-9.381388 16.330675 -2.236551 25.636370 81.140431 33.179812 -9.091563 1.034329 -1.253293 -2.502261 1.583210 -3.615098 -5.477615 1.473378 -1.060115 7.031057 -1.656459 -7.114700 -2.852532 -0.222695 0.064255 0.000000 0.000000 0.000000 -10.147360 13.813006 3.156469 -64.073398 10.531317 2.297653 -4.105772 -6.156889 -0.002279 5.104131 3.836520 0.173133 -0.048148 -0.012125 -0.000000 0.000000 0.000000 0.000000 0.000000 0.000000 0.000000 8.526959 5.844981 0.128315 58.239780 35.229152 18.692444 0.889770 59.240502 -0.013338 -2.501647 8.481866 -0.195557 0.020540 -0.422508 -0.000000 0.000000 0.000000 0.000000 0.000000 0.000000 0.000000 
-9.261262 16.275997 -2.256569 26.474711 80.862307 33.748225 -9.053854 0.978558 -0.846195 -2.508822 1.528228 -3.558156 -5.575514 1.418609 -1.153215 7.129032 -1.476329 -7.042571 -2.964547 -0.230546 0.070208 0.000000 0.000000 0.000000 -10.237768 13.277946 3.203552 -64.106694 8.486640 3.725894 -4.041361 -6.650807 -0.002661 5.380344 3.789260 0.179665 -0.043846 -0.003277 0.000000 0.000000 0.000000 0.000000 0.000000 0.000000 0.000000 9.073544 5.972198 0.178406 59.792767 33.908856 18.519662 0.957521 57.325077 -0.014270 -2.864871 8.764404 -0.231352 0.027812 -0.412813 -0.000000 0.000000 0.000000 0.000000 0.000000 0.000000 0.000000 
